<svg xmlns="http://www.w3.org/2000/svg" width="579.938" height="639.185" viewBox="0 0 579.938 639.185"><defs><style>.a{opacity:0.203;}.b{opacity:0.26;}.c{fill:none;stroke:#000;}</style></defs><g class="a" transform="translate(9786.354 -10981.646)"><g class="b" transform="translate(-9411.071 11290.698)"><circle cx="7.297" cy="7.297" r="7.297" transform="translate(39.85 19.644)"/><circle cx="7.297" cy="7.297" r="7.297" transform="translate(76.894 57.811)"/><circle cx="7.297" cy="7.297" r="7.297" transform="translate(116.183 81.384) rotate(90)"/><line class="c" x2="76" y2="76" transform="translate(47.302 27.302)"/><line class="c" x2="76.333" y2="76.333" transform="translate(202.057 47.147) rotate(90)"/><line class="c" x2="76.333" y2="76.333" transform="translate(123.479 26.941) rotate(90)"/><line class="c" x2="76.333" y2="76.333" transform="translate(202.057 123.479) rotate(180)"/><line class="c" x2="76.333" y2="76.333" transform="translate(185.219 12.348) rotate(90)"/><line class="c" x2="76.333" y2="76.333" transform="translate(76.333 24.696) rotate(90)"/><line class="c" x2="76.333" y2="76.333" transform="translate(204.302 76.333) rotate(180)"/></g><g class="b" transform="translate(-9411.071 10982)"><circle cx="7.297" cy="7.297" r="7.297" transform="translate(39.85 19.644)"/><circle cx="7.297" cy="7.297" r="7.297" transform="translate(192.516 5.051) rotate(90)"/><circle cx="7.297" cy="7.297" r="7.297" transform="translate(76.894 57.811)"/><circle cx="7.297" cy="7.297" r="7.297" transform="translate(116.183 81.384) rotate(90)"/><line class="c" x2="76" y2="76" transform="translate(47.302 27)"/><line class="c" x2="76.333" y2="76.333" transform="translate(202.057 47.147) rotate(90)"/><line class="c" x2="76.333" y2="76.333" transform="translate(123.479 26.941) rotate(90)"/><line class="c" x2="76.333" y2="76.333" transform="translate(202.057 123.479) rotate(180)"/><line class="c" x2="76.333" y2="76.333" transform="translate(185.219 12.348) rotate(90)"/><line class="c" x2="76.333" y2="76.333" transform="translate(76.333 24.696) rotate(90)"/><line class="c" x2="76.333" y2="76.333" transform="translate(204.302 76.333) rotate(180)"/></g><g class="b" transform="translate(-9786 10993.471)"><circle cx="7.297" cy="7.297" r="7.297" transform="translate(116.183 81.384) rotate(90)"/><line class="c" x2="76.333" y2="76.333" transform="translate(47.147 26.941)"/><line class="c" x2="76.333" y2="76.333" transform="translate(202.057 47.147) rotate(90)"/><line class="c" x2="76.333" y2="76.333" transform="translate(123.479 26.941) rotate(90)"/><line class="c" x2="76.333" y2="76.333" transform="translate(202.057 123.479) rotate(180)"/><line class="c" x2="76.333" y2="76.333" transform="translate(185.219 12.348) rotate(90)"/><line class="c" x2="76.333" y2="76.333" transform="translate(76.333 24.696) rotate(90)"/><line class="c" x2="76.333" y2="76.333" transform="translate(204.302 76.333) rotate(180)"/></g><g class="b" transform="translate(-9411.071 11402.952)"><circle cx="7.297" cy="7.297" r="7.297" transform="translate(39.85 19.644)"/><circle cx="7.297" cy="7.297" r="7.297" transform="translate(192.516 5.051) rotate(90)"/><circle cx="7.297" cy="7.297" r="7.297" transform="translate(76.894 57.811)"/><circle cx="7.297" cy="7.297" r="7.297" transform="translate(116.183 81.384) rotate(90)"/><line class="c" x2="76" y2="76" transform="translate(47.302 27.048)"/><line class="c" x2="76.333" y2="76.333" transform="translate(202.057 47.147) rotate(90)"/><line class="c" x2="76.333" y2="76.333" transform="translate(123.479 26.941) rotate(90)"/><line class="c" x2="76.333" y2="76.333" transform="translate(202.057 123.479) rotate(180)"/><line class="c" x2="76.333" y2="76.333" transform="translate(185.219 12.348) rotate(90)"/><line class="c" x2="76.333" y2="76.333" transform="translate(76.333 24.696) rotate(90)"/><line class="c" x2="76.333" y2="76.333" transform="translate(204.302 76.333) rotate(180)"/></g><g class="b" transform="translate(-9411.071 11094.254)"><circle cx="7.297" cy="7.297" r="7.297" transform="translate(39.85 19.644)"/><circle cx="7.297" cy="7.297" r="7.297" transform="translate(116.183 81.384) rotate(90)"/><line class="c" x2="76" y2="77" transform="translate(47.302 26.746)"/><line class="c" x2="76.333" y2="76.333" transform="translate(202.057 47.147) rotate(90)"/><line class="c" x2="76.333" y2="76.333" transform="translate(123.479 26.941) rotate(90)"/><line class="c" x2="76.333" y2="76.333" transform="translate(202.057 123.479) rotate(180)"/><line class="c" x2="76.333" y2="76.333" transform="translate(185.219 12.348) rotate(90)"/><line class="c" x2="76.333" y2="76.333" transform="translate(76.333 24.696) rotate(90)"/><line class="c" x2="76.333" y2="76.333" transform="translate(204.302 76.333) rotate(180)"/></g><g class="b" transform="translate(-9615.374 11105.725)"><circle cx="7.297" cy="7.297" r="7.297" transform="translate(116.183 81.384) rotate(90)"/><line class="c" x2="76.333" y2="76.333" transform="translate(47.147 26.941)"/><line class="c" x2="76.333" y2="76.333" transform="translate(202.057 47.147) rotate(90)"/><line class="c" x2="76.333" y2="76.333" transform="translate(123.479 26.941) rotate(90)"/><line class="c" x2="76.333" y2="76.333" transform="translate(202.057 123.479) rotate(180)"/><line class="c" x2="76.333" y2="76.333" transform="translate(185.219 12.348) rotate(90)"/><line class="c" x2="76.333" y2="76.333" transform="translate(76.333 24.696) rotate(90)"/><line class="c" x2="76.333" y2="76.333" transform="translate(204.302 76.333) rotate(180)"/></g><g class="b" transform="translate(-9565.982 11302.169)"><circle cx="5.941" cy="5.941" r="5.941" transform="translate(32.446 15.994)"/><circle cx="5.941" cy="5.941" r="5.941" transform="translate(156.744 4.113) rotate(90)"/><circle cx="5.941" cy="5.941" r="5.941" transform="translate(62.606 47.069)"/><circle cx="5.941" cy="5.941" r="5.941" transform="translate(94.595 66.262) rotate(90)"/><line class="c" x2="61.74" y2="61.74" transform="translate(38.371 22.451)"/><line class="c" x2="62.149" y2="62.149" transform="translate(164.512 38.387) rotate(90)"/><line class="c" x2="62.149" y2="62.149" transform="translate(100.535 21.934) rotate(90)"/><line class="c" x2="62.149" y2="62.149" transform="translate(164.512 100.535) rotate(180)"/><line class="c" x2="62.149" y2="62.149" transform="translate(150.803 10.054) rotate(90)"/><line class="c" x2="62.149" y2="62.149" transform="translate(62.149 20.107) rotate(90)"/><line class="c" x2="62.149" y2="62.149" transform="translate(166.34 62.15) rotate(180)"/></g><g class="b" transform="translate(-9565.982 10993.471)"><circle cx="5.941" cy="5.941" r="5.941" transform="translate(32.446 15.994)"/><circle cx="5.941" cy="5.941" r="5.941" transform="translate(156.744 4.113) rotate(90)"/><circle cx="5.941" cy="5.941" r="5.941" transform="translate(94.595 66.262) rotate(90)"/><line class="c" x2="61.74" y2="61.74" transform="translate(38.371 22.451)"/><line class="c" x2="62.149" y2="62.149" transform="translate(164.512 38.387) rotate(90)"/><line class="c" x2="62.149" y2="62.149" transform="translate(100.535 21.934) rotate(90)"/><line class="c" x2="62.149" y2="62.149" transform="translate(164.512 100.535) rotate(180)"/><line class="c" x2="62.149" y2="62.149" transform="translate(150.803 10.054) rotate(90)"/><line class="c" x2="62.149" y2="62.149" transform="translate(62.149 20.107) rotate(90)"/><line class="c" x2="62.149" y2="62.149" transform="translate(166.34 62.15) rotate(180)"/></g><g class="b" transform="translate(-9742.425 11215.733)"><circle cx="5.941" cy="5.941" r="5.941" transform="translate(32.446 15.994)"/><circle cx="5.941" cy="5.941" r="5.941" transform="translate(156.744 4.113) rotate(90)"/><circle cx="5.941" cy="5.941" r="5.941" transform="translate(62.606 47.069)"/><circle cx="5.941" cy="5.941" r="5.941" transform="translate(94.595 66.262) rotate(90)"/><line class="c" x2="61.74" y2="61.74" transform="translate(38.371 22.451)"/><line class="c" x2="62.149" y2="62.149" transform="translate(164.512 38.387) rotate(90)"/><line class="c" x2="62.149" y2="62.149" transform="translate(100.535 21.934) rotate(90)"/><line class="c" x2="62.149" y2="62.149" transform="translate(164.512 100.535) rotate(180)"/><line class="c" x2="62.149" y2="62.149" transform="translate(150.803 10.054) rotate(90)"/><line class="c" x2="62.149" y2="62.149" transform="translate(62.149 20.107) rotate(90)"/><line class="c" x2="62.149" y2="62.149" transform="translate(166.34 62.15) rotate(180)"/></g><g class="b" transform="translate(-9373.109 11519.942)"><circle cx="5.941" cy="5.941" r="5.941" transform="translate(94.595 66.262) rotate(90)"/><line class="c" x2="61.74" y2="61.74" transform="translate(38.371 22.451)"/><line class="c" x2="62.149" y2="62.149" transform="translate(164.512 38.387) rotate(90)"/><line class="c" x2="62.149" y2="62.149" transform="translate(100.535 21.934) rotate(90)"/><line class="c" x2="62.149" y2="62.149" transform="translate(164.512 100.535) rotate(180)"/><line class="c" x2="62.149" y2="62.149" transform="translate(150.803 10.054) rotate(90)"/><line class="c" x2="62.149" y2="62.149" transform="translate(62.149 20.107) rotate(90)"/><line class="c" x2="62.149" y2="62.149" transform="translate(166.34 62.15) rotate(180)"/></g><g class="b" transform="translate(-9443.625 11204.263)"><circle cx="5.941" cy="5.941" r="5.941" transform="translate(94.595 66.262) rotate(90)"/><line class="c" x2="61.74" y2="61.74" transform="translate(38.371 22.451)"/><line class="c" x2="62.149" y2="62.149" transform="translate(164.512 38.387) rotate(90)"/><line class="c" x2="62.149" y2="62.149" transform="translate(100.535 21.934) rotate(90)"/><line class="c" x2="62.149" y2="62.149" transform="translate(164.512 100.535) rotate(180)"/><line class="c" x2="62.149" y2="62.149" transform="translate(150.803 10.054) rotate(90)"/><line class="c" x2="62.149" y2="62.149" transform="translate(62.149 20.107) rotate(90)"/><line class="c" x2="62.149" y2="62.149" transform="translate(166.34 62.15) rotate(180)"/></g><g class="b" transform="translate(-9600.781 11209.244)"><circle cx="5.941" cy="5.941" r="5.941" transform="translate(94.595 66.262) rotate(90)"/><line class="c" x2="61.74" y2="61.74" transform="translate(38.371 22.451)"/><line class="c" x2="62.149" y2="62.149" transform="translate(164.512 38.387) rotate(90)"/><line class="c" x2="62.149" y2="62.149" transform="translate(100.535 21.934) rotate(90)"/><line class="c" x2="62.149" y2="62.149" transform="translate(164.512 100.535) rotate(180)"/><line class="c" x2="62.149" y2="62.149" transform="translate(150.803 10.054) rotate(90)"/><line class="c" x2="62.149" y2="62.149" transform="translate(62.149 20.107) rotate(90)"/><line class="c" x2="62.149" y2="62.149" transform="translate(166.34 62.15) rotate(180)"/></g></g></svg>