<svg xmlns="http://www.w3.org/2000/svg" xmlns:xlink="http://www.w3.org/1999/xlink" width="407.175" height="309.199" viewBox="0 0 407.175 309.199"><defs><style>.a,.o{fill:#f5b800;}.a,.e,.n{opacity:0.1;}.b{fill:url(#a);}.c{fill:#ff7590;}.d{fill:#8e5362;}.f{fill:#bdd2e8;}.g{fill:#494457;}.h{fill:#362133;}.i{fill:#ffc1c7;}.j{fill:#ff5374;}.k{fill:#575988;}.l{fill:#c4747b;}.m{fill:#bb7684;}.p{fill:none;stroke:#535461;stroke-miterlimit:10;stroke-width:2px;}.q{fill:#a8a8a8;}.r{opacity:0.2;}.s{fill:#ffd037;}</style><linearGradient id="a" x1="0.5" y1="1" x2="0.5" gradientUnits="objectBoundingBox"><stop offset="0" stop-color="gray" stop-opacity="0.251"/><stop offset="0.54" stop-color="gray" stop-opacity="0.122"/><stop offset="1" stop-color="gray" stop-opacity="0.102"/></linearGradient></defs><g transform="translate(0.004 0.003)"><path class="a" d="M312.226,705.891c-3.428-.347-7.01-.718-10.257.19s-5.937,3.557-4.973,6.09c2.154,5.647,14.794,1.714,20.622,5.574,2.081,1.379,2.892,3.549,4.517,5.243,2.63,2.751,7.151,4.033,11.515,4.739,26.216,4.239,56.1-6.671,79.08,3.836,7.441,3.4,13.31,8.82,21.469,11.091,10.809,3.009,22.647-.205,33.831-2.266a165.477,165.477,0,0,1,42.3-2.219c10.458.807,24.369,1.077,27.716-6.518,2.154-4.884-2.4-10.321-8.454-12.632S516.466,716.781,509.71,717c-13.039.468-26.083,1.411-39.123.952-25.216-.9-49.036-10.89-73.591-11.221C368.4,706.387,340.955,708.787,312.226,705.891Z" transform="translate(-215.503 -447.861)"/><path class="a" d="M262.989,386.437c-4.033,4.078-4.279,10.329-4.279,10.329s6.247-.355,10.265-4.437S273.258,382,273.258,382,267.006,382.367,262.989,386.437Z" transform="translate(-192.777 -254.829)"/><path class="a" d="M308.982,126.849c1.424,5.546,6.647,8.994,6.647,8.994s2.916-5.538,1.492-11.083-6.647-8.99-6.647-8.99S307.542,121.308,308.982,126.849Z" transform="translate(-222.535 -95.977)"/><path class="a" d="M888.073,174.491c-4.033,4.078-4.283,10.329-4.283,10.329s6.252-.355,10.269-4.437,4.279-10.333,4.279-10.333S892.09,170.433,888.073,174.491Z" transform="translate(-565.746 -128.364)"/><path class="a" d="M589.561,307.978c-.468,5.7,3.335,10.672,3.335,10.672s4.57-4.279,5.038-9.986S594.6,298,594.6,298,590.029,302.271,589.561,307.978Z" transform="translate(-390.163 -204.709)"/><path class="a" d="M917.621,506.282c-.468,5.7,3.335,10.672,3.335,10.672s4.57-4.279,5.038-9.982-3.336-10.672-3.336-10.672S918.089,500.579,917.621,506.282Z" transform="translate(-585.908 -323.029)"/><path class="a" d="M331.8,105.561c-26.1-.786-50.964-8.067-74.7-16.052s-47.254-16.815-72.732-21.042c-16.387-2.718-35.13-3.1-48.331,4.5-12.709,7.312-16.815,19.94-19.021,31.657-1.662,8.813-2.638,18.089,1.912,26.341,3.162,5.731,8.768,10.547,12.648,16.032,13.5,19.1,3.957,42.644-10.668,61.306-6.857,8.748-14.822,17.089-20.118,26.4s-7.744,19.977-3.11,29.471c4.59,9.414,15.532,16.484,27.386,21.457,24.075,10.083,52.432,12.991,80.1,14.629,61.237,3.63,122.8,2.057,184.195.484,22.723-.581,45.544-1.17,67.9-4.211,12.414-1.686,25.228-4.364,34.242-10.833,11.438-8.212,14.274-22.114,6.606-32.411-12.858-17.266-48.4-21.558-57.4-40.091-4.945-10.2.133-21.562,7.324-31.024,15.423-20.3,41.272-38.1,42.632-61.306.936-15.931-11.491-31.887-30.705-39.425-20.138-7.905-48.068-6.909-62.919,6.171C381.734,101.068,354.848,106.25,331.8,105.561Z" transform="translate(-95.23 -66.69)"/><path class="b" d="M561.183,194.554a3.63,3.63,0,0,0-2.476,2.182l-.4-.065-1.5-.242s-7.97-.657-9.458-.557a2.977,2.977,0,0,1-2.42-1.367L539,189.492l-.46-.4c.641-.242,1.041-.367,1.041-.367s-15.9-19.763-19.327-20.146-9.1-5-9.152-5.042l-.06-.315c-.125-.665-.218-1.339-.286-2.017l.843.516h0a6.809,6.809,0,0,1,.024-.7h0a12.763,12.763,0,0,1,2.371-6.776c1.658-2.3,4.11-4.106,5.09-6.756a9.764,9.764,0,0,0,.52-3.545,11.815,11.815,0,0,0-1.654-6.167,7.7,7.7,0,0,0-5.2-3.59c-.565-.089-1.141-.1-1.7-.23-3.311-.778-4.529-5.219-7.748-6.308a6.526,6.526,0,0,0-4.618.456c-1.448.629-2.759,1.533-4.174,2.23a24.621,24.621,0,0,0-4.307,2.2,4.48,4.48,0,0,0-.4.347h0l-.254.246h0a9.132,9.132,0,0,0-1.375,1.795l-.061.1c-.04.069-.077.141-.113.214s-.061.113-.085.169-.065.129-.093.194l-.085.194-.073.186c-.024.069-.052.137-.073.21s-.04.117-.056.177l-.06.214-.036.173a1.429,1.429,0,0,1-.04.222.721.721,0,0,0,0,.161v.746a2.473,2.473,0,0,0,.073.351h0A7.045,7.045,0,0,0,489,140.392c-.065.061-.129.117-.194.181a14.059,14.059,0,0,0-4.3,10.127,13.874,13.874,0,0,0,.23,2.5,13.44,13.44,0,0,0-2.351-1.424,20.525,20.525,0,0,0-8.748-2.017,60.237,60.237,0,0,1-11.882-1.912,4.727,4.727,0,0,1,.4,1.069c-.3-.173-.629-.359-.988-.552a28.966,28.966,0,0,0-9.277-3.106s-2.057.286-2.331-4.033a18.308,18.308,0,0,0-.726-3.981,67.851,67.851,0,0,1-2.444-12.1l-.69-6.34s3.106-16.536,1.238-23.586c.6-2.21.262-4.235-1.718-5.691-7.812-5.751-15.693,16.633-15.693,16.633l-2.928,2.843a6.284,6.284,0,0,0-2.485-.948s-1.577,1.613-2.674,6.018c-.581,2.335-4.55,6.235-8.139,9.377-2.549,2.23-5.009,4.549-7.466,6.877-1.815,1.726-5.86,4.195-14.685,5.59-1.383.218-2.642.423-3.791.613a11.831,11.831,0,0,0,.444-3.2,12.011,12.011,0,0,0-9.422-11.668,3.007,3.007,0,0,0,0-.851,3.524,3.524,0,0,0-.891-1.613c-1.859-2.3-3.876-4.662-6.643-5.751a8.652,8.652,0,0,0-3.586-.577h-.984a9.188,9.188,0,0,0-6.719,3.5c-.992,1.327-1.589,2.9-2.444,4.316a19.2,19.2,0,0,1-6.683,6.239c-1.593.964-3.267,1.795-4.771,2.888a17.9,17.9,0,0,0-6.6,17.843c.6,2.876,1.884,5.707,1.541,8.623a15.139,15.139,0,0,1-2.731,6.215,19.349,19.349,0,0,0-3.049,6.094c-.492,2.222.024,4.84,1.888,6.187a14.889,14.889,0,0,1,2.1,1.4,6.734,6.734,0,0,1,.968,1.516,15.093,15.093,0,0,0,9.385,7.292,6.856,6.856,0,0,0,1.92.21h.194c1.48.093,3-.3,3.493-1.613a3.664,3.664,0,0,1,.335-.855,1,1,0,0,1,.585-.4,5.374,5.374,0,0,1,1.367.516,17.391,17.391,0,0,0,6.647,1.9,9.366,9.366,0,0,0,1.166.02,5.155,5.155,0,0,0,2.376-.339,5.091,5.091,0,0,0,1.827-1.565c.1-.133.2-.274.3-.4a33.355,33.355,0,0,1-2.977,9.277,16.836,16.836,0,0,0-2.246,8.1,8.134,8.134,0,0,0,.907,4.275s.068-.177.21-.456c.694,1.162,2.968,4.876,4.461,6.179.072,3.836.056,8.639-.424,9.627-.807,1.69-3.356,13.713,7.607,21.913l2.529,5.538-10.41.738c-1.053-.145-14.665-1.976-14.733.69-.069,2.771,2.057,29.753,9.115,27.926,6.578-1.7,4.408-9.571,4.082-10.628l.234-.065-.258-.073,5.263-4.989a2.331,2.331,0,0,0-.4-1.73l.052-.028,12.713.569,2.989,6.494s5.07,7.712.96,14.2-8.361,16.637-9.047,22.792c-.561,5.034-4.287,9.978-5.622,11.608-2.384.807-11.527,4.4-7.877,9.829,4.179,6.219,17.746,18.057,23.232,17.65s3.287-4.4,3.287-4.4l-4.586-4.445s-.807-9.47-.48-12.241a2.852,2.852,0,0,0-2.017-2.916c.432-3.085,1.525-8.934,3.872-12.164,3.287-4.533,13.842-24.482,13.842-24.482s3.356-2.977,2.6-11.834c-.3-3.573-.472-6.711-.569-9.192l11.947.536s12.814-1.287,4.11-15.016-27.2-27.184-27.2-27.184l-.165-8.5c.839.21,1.331.315,1.331.315s-.073-.307-.194-.855l.194.044a184.537,184.537,0,0,1-3.5-20.771l.754.347c7.95,9.2,13.31,1.424,13.31,1.424s16.79-23.6,15.145-22.522a1.428,1.428,0,0,1-1.105.069l1.21-3.856s4.957-7.574-2.239-11.834c-5.872-3.477-5.719,7.421-5.465,11.539l-.29-.246s-5.618,8.47-8.635,13.189-5.55,1.613-5.55,1.613l-3.811-4.3a15.089,15.089,0,0,0,.907-5.372,9.127,9.127,0,0,0-2.577-6.97,12.088,12.088,0,0,1-3.848-8.046,8.519,8.519,0,0,1,.762-3.315l19.807-10.486s4.179.065,9.8-8.591a148.58,148.58,0,0,1,11.995-15.823s-.117-.169-.319-.448c.2-.238.319-.367.319-.367s-.23-.335-.621-.851l3.053-3.521a45.2,45.2,0,0,0-.036,4.779l1.581,5.344.887,29.753s-.96,2.823,5.211,5.683c5.219,2.42,13.487,6.453,15.9,7.643-.089.218-.141.335-.141.335l.718-.048.1.048h0c12.055-1.081,11.644,10.954,11.644,10.954s.807,24.482-2.876,33S464.639,227,464.639,227s.367-1.8,2.42.553c-.04.206-.085.427-.133.657-1.178,5.9-3.63,18.452-4.086,23.542a82.505,82.505,0,0,1-2.674,13.713l-1.21,22.518,7.708.375-.085.807a2.533,2.533,0,0,1-1.307,1.964c-2.638,1.432-8.873,6.453-8.373,21.949l-.266,2.493a31.312,31.312,0,0,1-3.763,12.023c-.178.315-.335.617-.468.907a.742.742,0,0,1,.21-.432s-4.005.831-3.182,11.652,2.057,12.713,3.7,12.846,9.68,2.1,9.248-1.892-.807-12.85-.274-14.2,2.718-5,.645-5.876h0a30.919,30.919,0,0,0,.867-7.583s4.033-6.356,6.917-8.724,4.437-6.389,5.481-11.563c.073-.339,8.5-5.953,7.26-10.616-.218-.807-.375-1.521-.5-2.166-.052-.286-.1-.557-.137-.807h.149l1.714-10.281v10.011l1.016.133-.036.807-.432,9.6a15.8,15.8,0,0,1-1.21,5.437c-1.815,4.3-5.162,13.858-4.251,24.2l-.1,9.22c-.29.056-4.477,1.045-3.682,11.495.807,10.817,2.053,12.713,3.7,12.846s9.68,2.1,9.252-1.892-.807-12.85-.274-14.2,1.492-4.925-.581-5.8a7.728,7.728,0,0,1,.863-3.481c.9-1.537,3.92-8.841,6.191-14.459a51.753,51.753,0,0,0,3.812-17.879q0-.1,0-.206a16.763,16.763,0,0,1,1.311-6.022,38.82,38.82,0,0,0,2.194-6.619c.057-.27.1-.532.141-.807l1.968.262,6.719-29.08s1.839-15.762.94-22.881c-.036-.294-.077-.565-.125-.827l.4.036s1.371-3.513.96-18.529,2.743-19.763,2.743-19.763c1.7-5.4,3.581-7.2,4.679-7.808h0a1.98,1.98,0,0,1,.94-.307l5.086,5.82h0l.936,1.073a.346.346,0,0,0,0-.065l.4.472a4.338,4.338,0,0,1-.032-.722c2.714,1.577,8.986,5.263,12.729,7.909,4.88,3.448,6.219,3.045,10.486,2.686,2.589-.214,6.091-1.666,8.438-2.771l.214-.1a10.3,10.3,0,0,0,1.984.807s6.889,5.836,7.554-4.816S561.183,194.554,561.183,194.554ZM382.51,318.6a9.956,9.956,0,0,1-2.017-.851ZM371.725,203.3l.024,1.512-.1.048C371.676,204.327,371.7,203.8,371.725,203.3Zm107.745,135v.589A.432.432,0,0,1,479.469,338.3Z" transform="translate(-238.085 -79.758)"/><rect class="c" width="11.696" height="12.301" transform="translate(251.677 81.321)"/><path class="d" d="M649.083,594.033c-1.028,5.142-2.553,9.139-5.376,11.495s-6.788,8.672-6.788,8.672c-.068,8.4-2.287,10.954-2.287,10.954l-2.287.6H626.7a27.936,27.936,0,0,1-1.21-4.5,5.279,5.279,0,0,1,.887-2.509,31.433,31.433,0,0,0,3.69-11.951l.262-2.48c-.476-15.395,5.647-20.392,8.216-21.816a2.518,2.518,0,0,0,1.279-1.952h0l.456-4.4,15.19.746a12.047,12.047,0,0,0,.254,4.437c.117.641.274,1.355.484,2.15C657.416,588.117,649.148,593.695,649.083,594.033Z" transform="translate(-411.62 -370.674)"/><path class="d" d="M714.707,585.693a39.172,39.172,0,0,1-2.15,6.578,16.887,16.887,0,0,0-1.291,5.985v.206a52.1,52.1,0,0,1-3.739,17.771c-2.23,5.582-5.187,12.846-6.074,14.375-1.476,2.553-.6,6.857-.6,6.857l-8.55-.6.149-14.386c-.891-10.273,2.392-19.763,4.171-24.05a15.762,15.762,0,0,0,1.21-5.4l.4-9.543.125-2.823s15.117-2.15,16.391,1.279A7.257,7.257,0,0,1,714.707,585.693Z" transform="translate(-451.487 -372.965)"/><path class="e" d="M676.915,581.333,661,580.55l.456-4.4,15.205.746A11.7,11.7,0,0,0,676.915,581.333Z" transform="translate(-432.813 -370.674)"/><path class="e" d="M723.48,585.693,707,583.479l.125-2.823s15.117-2.15,16.391,1.279A7.206,7.206,0,0,1,723.48,585.693Z" transform="translate(-460.26 -372.965)"/><path class="f" d="M693.648,466.179l-6.586,28.906-19.493-2.622v-9.95l-1.686,10.224-23.393-1.145,1.21-22.385a83.036,83.036,0,0,0,2.622-13.644c.456-5.058,2.851-17.533,4.009-23.393.4-1.932.629-3.15.629-3.15s40.066,8.333,42.688,11.358a6.376,6.376,0,0,1,.924,3.069C695.451,450.513,693.648,466.179,693.648,466.179Z" transform="translate(-421.768 -282.885)"/><path class="e" d="M653.33,515.813s15.77-8.268,19.613-6.522Z" transform="translate(-428.236 -330.637)"/><path class="e" d="M674.66,458.82s13.108,9.95,13.511,12.636Z" transform="translate(-440.963 -300.666)"/><path class="e" d="M665.83,543.783s9.478-.4,12.5,2.017Z" transform="translate(-435.695 -351.346)"/><path class="e" d="M706.072,517.44s4.505,14.746,2.553,18.779-3.965-.944-3.965-.944Z" transform="translate(-458.864 -335.643)"/><path class="g" d="M686.955,708s-4.436.674-3.63,11.426,2.017,12.64,3.63,12.773,9.478,2.085,9.075-1.883-.807-12.769-.27-14.116,1.464-4.892-.569-5.768l-.44,2.073s-4.3-3.969-6.856-1.077a11.178,11.178,0,0,0-.528-2.069C687.112,708.73,686.556,708.4,686.955,708Z" transform="translate(-446.075 -449.345)"/><path class="d" d="M842.215,354.793s-1.016.569-2.509,1.279c-2.3,1.1-5.735,2.541-8.276,2.755-4.186.355-5.5.758-10.285-2.67-3.674-2.63-9.825-6.3-12.5-7.861l-1.166-.69-.117-.069v-.048l2.222-6.106,7.865-4.182,1.952,1.674,5.812,4.981a2.9,2.9,0,0,0,2.372,1.359c1.464-.1,9.276.552,9.276.552l1.476.242,3.11.516Z" transform="translate(-520.142 -228.098)"/><path class="e" d="M885.705,367.842s-1.017.569-2.509,1.279c-1.577-.807-3.537-2.319-2.783-4.808.682-2.238.867-3.985,1.428-5.243l3.11.516Z" transform="translate(-563.632 -241.148)"/><path class="d" d="M885.244,353.432s8.772-2.521,8.119,8.066-7.413,4.792-7.413,4.792-5.747-1.512-4.537-5.5S882.271,354.392,885.244,353.432Z" transform="translate(-564.227 -237.627)"/><path class="d" d="M616.662,168.9l-9.139,3.84-.141.06-.1-.048-.569-.286c-2.364-1.178-10.487-5.207-15.6-7.6-6.05-2.823-5.11-5.647-5.11-5.647l-.871-29.576-1.549-5.312s-1.093-18,7.663-22.518,3.094,26.079,3.094,26.079l.678,6.356a68.058,68.058,0,0,0,2.4,12.007,18.658,18.658,0,0,1,.71,3.957c.27,4.3,2.287,4.013,2.287,4.013a28.074,28.074,0,0,1,9.091,3.089,22.736,22.736,0,0,1,3.009,1.9Z" transform="translate(-386.595 -87.381)"/><path class="d" d="M734.79,273.587l-7.8-.807a29.971,29.971,0,0,0,3.311-6.748,11.446,11.446,0,0,0,.343-1.391,4.643,4.643,0,0,0-.427-3.424c-2.283-3.36,13.58-8.066,13.58-8.066a38.74,38.74,0,0,0-.173,5.6,28.322,28.322,0,0,0,.4,3.876c.48,2.61,1.436,5.066,3.259,6.324C752.266,272.377,734.79,273.587,734.79,273.587Z" transform="translate(-472.187 -177.948)"/><path class="e" d="M734.79,287.6l-7.8-.807a29.975,29.975,0,0,0,3.311-6.748,2.817,2.817,0,0,0,2.472,1.5s7.873,1.166,11.261-4.913c.48,2.61,1.436,5.066,3.259,6.324C752.266,286.392,734.79,287.6,734.79,287.6Z" transform="translate(-472.187 -191.964)"/><path class="e" d="M808.688,348.3a4.329,4.329,0,0,0,.032.718l-1.21-1.408-.1-.117,2.222-6.106L817.5,337.2l1.952,1.674C816.654,339.943,808.813,343.335,808.688,348.3Z" transform="translate(-520.172 -228.098)"/><path class="e" d="M650.737,251.666l-9.139,3.84h-.242l-.706.048s.052-.117.137-.335c.762-1.851,4.3-10.89,2.771-15.149a22.76,22.76,0,0,1,3.009,1.9Z" transform="translate(-420.67 -170.143)"/><path class="e" d="M706.171,443.429c-3.557-.319-39.147-3.61-42.466-8.849a18.389,18.389,0,0,0-1.774-2.42c.4-1.932.629-3.15.629-3.15s40.066,8.333,42.688,11.358A6.292,6.292,0,0,1,706.171,443.429Z" transform="translate(-433.368 -282.879)"/><path class="c" d="M682.456,259.39s7.958,1.178,11.321-5.005c0,0,5.618,4.614,8.978,5.009s18.956,20.029,18.956,20.029-12.5,4.033-11.7,10.486l-5.917-6.857s-2.956-.137-5.51,8.067c0,0-3.094,4.7-2.69,19.626s-.94,18.42-.94,18.42-39.26-3.36-42.753-8.873-4.033-2.823-4.033-2.823-.541-10.486,3.089-18.956,2.823-32.8,2.823-32.8.4-11.967-11.426-10.89c0,0,4.973-11.563,2.69-16a58.234,58.234,0,0,0,11.652,1.9,19.929,19.929,0,0,1,8.583,2.017,9.519,9.519,0,0,1,3.562,2.686c2.283,3.227,6.05,1.75,6.05,1.75a61.077,61.077,0,0,0,3.509,8.6c.157.294.315.585.476.863a13.264,13.264,0,0,0,.718,1.137A2.883,2.883,0,0,0,682.456,259.39Z" transform="translate(-421.87 -169.398)"/><path class="e" d="M748.082,258.718a13.818,13.818,0,0,1-1.428,1.714,14.073,14.073,0,0,1-10.083,4.251,14.45,14.45,0,0,1-1.456-.073,4.643,4.643,0,0,0-.427-3.424c-2.283-3.36,13.58-8.067,13.58-8.067A38.725,38.725,0,0,0,748.082,258.718Z" transform="translate(-476.646 -177.93)"/><path class="d" d="M732.893,224.936a14.064,14.064,0,1,1-4.119-10A14.116,14.116,0,0,1,732.893,224.936Z" transform="translate(-458.864 -152.691)"/><path class="e" d="M792,325.8l.29,9.446s4.215-3.4,4.348-6.623S792,325.8,792,325.8Z" transform="translate(-510.977 -221.284)"/><path class="e" d="M707.66,349.24s11.091,15.225,17.545,16.77S710.08,354.177,707.66,349.24Z" transform="translate(-460.654 -235.282)"/><path class="e" d="M736.83,353.17s6.183,6.986,10.62,7.857Z" transform="translate(-478.058 -237.627)"/><path class="e" d="M682.83,396.82s11.293,11.091,17.746,11.765Z" transform="translate(-445.838 -263.672)"/><path class="e" d="M739.1,224.933a14.064,14.064,0,0,1-4.033,9.865l-1.549-.964a4.283,4.283,0,0,1-1.508-1.311,5.212,5.212,0,0,1-.323-2.924,6.879,6.879,0,0,0-2.146-5.711c-2.674-2.142-6.961-.956-9.68-3.057a9.536,9.536,0,0,1-1.714-1.908l-2.549-3.416c-.153-.2-.339-.4-.536-.641a14.116,14.116,0,0,1,24.014,10.083Z" transform="translate(-465.069 -152.687)"/><path class="h" d="M714.407,193.461a25.322,25.322,0,0,1,4.223-2.182c1.419-.71,2.674-1.613,4.094-2.218a6.448,6.448,0,0,1,4.533-.456c3.158,1.085,4.352,5.5,7.6,6.272.549.129,1.114.141,1.666.226a7.582,7.582,0,0,1,5.1,3.569,11.88,11.88,0,0,1,1.613,6.135,9.817,9.817,0,0,1-.512,3.521c-.96,2.634-3.367,4.436-4.993,6.715A12.769,12.769,0,0,0,735.4,222.5l-3.937-2.448a4.244,4.244,0,0,1-1.508-1.311,5.211,5.211,0,0,1-.322-2.924,6.89,6.89,0,0,0-2.142-5.711c-2.678-2.142-6.966-.956-9.68-3.057a9.539,9.539,0,0,1-1.714-1.908l-2.549-3.416c-.553-.742-1.614-1.666-1.855-2.569C711.152,197.211,712.987,194.553,714.407,193.461Z" transform="translate(-463.001 -139.292)"/><path class="e" d="M731.888,227.661a4.246,4.246,0,0,1-1.508-1.311,5.214,5.214,0,0,1-.323-2.924,6.879,6.879,0,0,0-2.146-5.711c-2.674-2.142-6.961-.956-9.68-3.057a9.552,9.552,0,0,1-1.714-1.908l-2.549-3.416c-.557-.742-1.613-1.666-1.855-2.569-.44-1.557.674-3.586,1.863-4.884-1.335,1.234-2.8,3.578-2.3,5.324a10.115,10.115,0,0,0,1.856,2.569l2.549,3.416a9.536,9.536,0,0,0,1.714,1.908c2.706,2.1,6.994.916,9.68,3.057a6.889,6.889,0,0,1,2.142,5.711,5.213,5.213,0,0,0,.323,2.924,4.241,4.241,0,0,0,1.508,1.311l3.937,2.448a6.676,6.676,0,0,1,.024-.7Z" transform="translate(-462.989 -147.356)"/><path class="g" d="M622.29,682.94s-3.928.806-3.122,11.579,2.017,12.64,3.63,12.773,9.478,2.085,9.075-1.884-.807-12.769-.27-14.116,2.666-4.965.633-5.84l-1.642,2.146s-4.3-3.969-6.856-1.077C623.738,686.522,621.351,683.88,622.29,682.94Z" transform="translate(-407.788 -434.393)"/><path class="e" d="M633.23,699.5c.851.4,1.646.9,2.492,1.3a5.592,5.592,0,0,0,2.706.637,1.887,1.887,0,0,0,1.105-.383" transform="translate(-416.243 -444.274)"/><path class="e" d="M697.33,725.62a13.72,13.72,0,0,0,1.464,1.44,5.11,5.11,0,0,0,2.823.585,1.144,1.144,0,0,0,.484-.061,1.176,1.176,0,0,0,.432-.4l.529-.682" transform="translate(-454.49 -459.859)"/><path class="i" d="M532.69,261.969s-1.815-17.206,5.243-12.971,2.2,11.761,2.2,11.761l-1.658,5.312Z" transform="translate(-356.129 -175.07)"/><path class="i" d="M561,114.108l4.033-3.961s7.732-22.251,15.395-16.536-9.712,20.166-9.712,20.166l-4.606,5.376Z" transform="translate(-373.145 -82.195)"/><path class="j" d="M414.362,360.814l-.2,4.57s3.7,6.453,5.243,6.925,1.412-13.648,1.412-13.648Z" transform="translate(-285.53 -240.903)"/><path class="e" d="M414.362,360.814l-.2,4.57s3.7,6.453,5.243,6.925,1.412-13.648,1.412-13.648Z" transform="translate(-285.53 -240.903)"/><path class="i" d="M334.76,284.87l.274,16.843h18.751l-1.412-9.813Z" transform="translate(-199.745 -169.977)"/><path class="k" d="M437.751,455.82l.875,5.376,10.958,24.337s4.973,7.663.94,14.116-8.2,16.537-8.873,22.651-5.981,12.1-5.981,12.1l11.563,4.908s.807-9.611,4.033-14.116,13.576-24.333,13.576-24.333,3.3-2.96,2.557-11.765-.674-14.992-.674-14.992l-1.141-14.048Z" transform="translate(-298.364 -298.876)"/><path class="e" d="M437.751,455.82l.875,5.376,10.958,24.337s4.973,7.663.94,14.116-8.2,16.537-8.873,22.651-5.981,12.1-5.981,12.1l11.563,4.908s.807-9.611,4.033-14.116,13.576-24.333,13.576-24.333,3.3-2.96,2.557-11.765-.674-14.992-.674-14.992l-1.141-14.048Z" transform="translate(-298.364 -298.876)"/><path class="l" d="M424.7,648.82s-12.37,3.763-8.268,9.95,17.412,17.948,22.788,17.545,3.227-4.372,3.227-4.372l-4.505-4.436s-.807-9.41-.468-12.164-3.832-4.033-4.372-2.42S424.7,648.82,424.7,648.82Z" transform="translate(-286.385 -414.034)"/><path class="k" d="M435.813,375.58l-9.8,1.085a3.517,3.517,0,0,0-3.13,3.586c.1,3.92.173,10.156-.375,11.293-.807,1.682-3.291,13.648,7.461,21.78l14.588,4.638-23.393,1.682.742,12.975,3.63-2.017,44.366,2.017s12.572-1.279,4.033-14.923-26.684-27.023-26.684-27.023l-.2-10.624-1.347-3.09Z" transform="translate(-289.706 -250.999)"/><path class="e" d="M487.66,478.593a12.6,12.6,0,0,1,10.083,0Z" transform="translate(-329.385 -311.836)"/><path class="l" d="M402.517,483.535s-14.451-2.081-14.52.674,2.017,29.576,8.942,27.761,3.965-10.688,3.965-10.688l5.179-4.973s.536-2.755-2.892-2.489Z" transform="translate(-269.918 -314.963)"/><path class="j" d="M479.153,286.02l5.711,6.522s2.489,3.094,5.445-1.613,8.47-13.108,8.47-13.108,6.118,5.376,7.732,4.3-14.854,22.389-14.854,22.389-5.243,7.728-13.044-1.412l-2.283-1.077Z" transform="translate(-322.625 -192.668)"/><path class="e" d="M479.153,286.02l5.711,6.522s2.489,3.094,5.445-1.613,8.47-13.108,8.47-13.108,6.118,5.376,7.732,4.3-14.854,22.389-14.854,22.389-5.243,7.728-13.044-1.412l-2.283-1.077Z" transform="translate(-322.625 -192.668)"/><circle class="i" cx="11.898" cy="11.898" r="11.898" transform="translate(127.158 43.053)"/><path class="e" d="M423.243,173.371s-10.224,4.84-9.014,13.31a187.269,187.269,0,0,1,1.412,19.158s4.642,6.857-1.513,19.965c0,0-3.932,6.655-1.311,11.495,0,0,2.908-7.663,10.426-2.017s19.622,8.268,19.622,8.268-6.252-27.426-2.42-31.258c0,0,6.655-9.881.6-16.133s-3.025-12.1-3.025-12.1l19.428-10.418s4.1.065,9.611-8.538a148.147,148.147,0,0,1,11.765-15.73s-4.171-6.252-8.067-6.723c0,0-1.549,1.613-2.622,5.985-.573,2.319-4.465,6.2-7.986,9.321-2.5,2.218-4.913,4.521-7.32,6.857-1.783,1.714-5.751,4.166-14.407,5.554C424.183,172.637,423.243,173.371,423.243,173.371Z" transform="translate(-284.191 -112.015)"/><path class="j" d="M423.243,171.371s-10.224,4.84-9.014,13.31a187.267,187.267,0,0,1,1.412,19.158s4.642,6.857-1.513,19.965c0,0-3.932,6.655-1.311,11.495,0,0,2.908-7.663,10.426-2.017s19.622,8.268,19.622,8.268-6.252-27.426-2.42-31.258c0,0,6.655-9.881.6-16.133s-3.025-12.1-3.025-12.1l19.428-10.418s4.1.065,9.611-8.538a148.126,148.126,0,0,1,11.765-15.73s-4.171-6.252-8.067-6.723c0,0-1.549,1.613-2.622,5.985-.573,2.319-4.465,6.2-7.986,9.321-2.5,2.218-4.913,4.521-7.32,6.857-1.783,1.714-5.751,4.166-14.407,5.554C424.183,170.637,423.243,171.371,423.243,171.371Z" transform="translate(-284.191 -110.822)"/><path class="e" d="M461.83,342.49s7.93,11.7,8.131,13.713C469.965,356.2,468.755,343.631,461.83,342.49Z" transform="translate(-313.973 -231.255)"/><path class="e" d="M436,244.82s5.53,6.655,13.519,1.077A17.137,17.137,0,0,1,436,244.82Z" transform="translate(-298.561 -172.978)"/><path class="e" d="M384.332,160.4a3.57,3.57,0,0,0-.871-1.613c-1.823-2.287-3.8-4.634-6.518-5.719a9.01,9.01,0,0,0-10.281,2.928c-.976,1.315-1.557,2.88-2.4,4.287a19.019,19.019,0,0,1-6.554,6.2c-1.561.956-3.207,1.783-4.679,2.868-5.352,3.941-7.824,11.225-6.477,17.746.593,2.856,1.847,5.671,1.508,8.571a15.177,15.177,0,0,1-2.674,6.179,19.54,19.54,0,0,0-2.993,6.05c-.484,2.2.024,4.812,1.851,6.147a15.378,15.378,0,0,1,2.061,1.4,6.7,6.7,0,0,1,.948,1.508,14.83,14.83,0,0,0,9.208,7.26c1.734.456,4.062.29,4.695-1.387a3.615,3.615,0,0,1,.327-.851c.573-.807,1.835-.355,2.722.109a16.856,16.856,0,0,0,6.506,1.867,5.424,5.424,0,0,0,2.666-.319,4.926,4.926,0,0,0,1.795-1.553c2.121-2.763,2.73-6.373,3.093-9.837a22.974,22.974,0,0,0-.028-6.776c-.686-3.573-2.86-6.913-2.537-10.535.343-3.872,3.485-7.038,3.965-10.89a8.3,8.3,0,0,0-1.416-5.723,8.177,8.177,0,0,1-1.077-1.686,1.674,1.674,0,0,1,.323-1.851,2.825,2.825,0,0,1,.839-.4,6.976,6.976,0,0,0,4.162-6.252,13.889,13.889,0,0,1,.278-2.92C383.219,163.682,384.562,162.02,384.332,160.4Z" transform="translate(-242.606 -117.89)"/><path class="m" d="M382.332,160.4a3.571,3.571,0,0,0-.871-1.613c-1.823-2.287-3.8-4.634-6.518-5.719a9.01,9.01,0,0,0-10.281,2.928c-.976,1.315-1.557,2.88-2.4,4.287a19.019,19.019,0,0,1-6.554,6.2c-1.561.956-3.206,1.783-4.678,2.868-5.352,3.941-7.825,11.225-6.477,17.746.593,2.856,1.847,5.671,1.509,8.571a15.178,15.178,0,0,1-2.674,6.179,19.538,19.538,0,0,0-2.993,6.05c-.484,2.2.024,4.812,1.851,6.147a15.384,15.384,0,0,1,2.061,1.4,6.7,6.7,0,0,1,.948,1.508,14.831,14.831,0,0,0,9.208,7.26c1.734.456,4.061.29,4.695-1.387a3.636,3.636,0,0,1,.327-.851c.573-.807,1.835-.355,2.723.109a16.855,16.855,0,0,0,6.506,1.867,5.424,5.424,0,0,0,2.666-.319,4.926,4.926,0,0,0,1.795-1.553c2.122-2.763,2.73-6.373,3.093-9.837a22.98,22.98,0,0,0-.028-6.776c-.686-3.573-2.86-6.913-2.537-10.535.343-3.872,3.485-7.038,3.965-10.89a8.305,8.305,0,0,0-1.416-5.723,8.177,8.177,0,0,1-1.077-1.686,1.674,1.674,0,0,1,.323-1.851,2.825,2.825,0,0,1,.839-.4,6.976,6.976,0,0,0,4.162-6.252,13.893,13.893,0,0,1,.278-2.92C381.219,163.682,382.562,162.02,382.332,160.4Z" transform="translate(-241.413 -117.89)"/><g class="n" transform="translate(114.09 34.592)"><path d="M380.889,324.038a3.808,3.808,0,0,0-.331.851,2.7,2.7,0,0,1-2.448,1.573c1.52.153,3.146-.214,3.658-1.573a3.8,3.8,0,0,1,.331-.851,1.008,1.008,0,0,1,.4-.343A1.385,1.385,0,0,0,380.889,324.038Z" transform="translate(-378.11 -254.57)"/><path d="M424.739,160.374a3.48,3.48,0,0,0-.871-1.613c-1.823-2.287-3.8-4.634-6.518-5.719a8.469,8.469,0,0,0-3.711-.557,8.238,8.238,0,0,1,2.5.557c2.714,1.085,4.695,3.432,6.518,5.719a3.48,3.48,0,0,1,.871,1.613c.23,1.613-1.109,3.287-1.553,4.779a12.66,12.66,0,0,0-.278,2.92,7,7,0,0,1-4.166,6.252,2.824,2.824,0,0,0-.839.4,1.674,1.674,0,0,0-.318,1.855,8.164,8.164,0,0,0,1.073,1.686,8.3,8.3,0,0,1,1.42,5.719c-.484,3.86-3.63,7.022-3.969,10.89-.323,3.63,1.855,6.961,2.537,10.531a23.114,23.114,0,0,1,.028,6.776c-.363,3.465-.968,7.078-3.094,9.837a4.909,4.909,0,0,1-1.791,1.553,4.01,4.01,0,0,1-1.319.327,5.216,5.216,0,0,0,2.529-.327,4.908,4.908,0,0,0,1.8-1.525c2.126-2.759,2.731-6.373,3.093-9.837a22.975,22.975,0,0,0-.028-6.776c-.682-3.569-2.86-6.913-2.537-10.531.347-3.876,3.485-7.038,3.969-10.89a8.3,8.3,0,0,0-1.42-5.719,8.164,8.164,0,0,1-1.073-1.686,1.674,1.674,0,0,1,.319-1.855,2.821,2.821,0,0,1,.839-.4,6.989,6.989,0,0,0,4.166-6.252,13.6,13.6,0,0,1,.278-2.92C423.63,163.661,424.969,162,424.739,160.374Z" transform="translate(-397.89 -152.462)"/></g><path class="e" d="M406.82,525a5.449,5.449,0,0,0,5.578,1.541" transform="translate(-281.15 -340.154)"/><path class="e" d="M466.783,696a3.425,3.425,0,0,1-2.783.7" transform="translate(-315.268 -442.185)"/><ellipse class="a" cx="10.862" cy="1.835" rx="10.862" ry="1.835" transform="translate(31.546 262.664)"/><ellipse class="o" cx="10.862" cy="1.835" rx="10.862" ry="1.835" transform="translate(328.91 299.205)"/><ellipse class="a" cx="10.862" cy="1.835" rx="10.862" ry="1.835" transform="translate(328.91 263.882)"/><ellipse class="a" cx="10.862" cy="1.835" rx="10.862" ry="1.835" transform="translate(62.344 279.704)"/><ellipse class="o" cx="16.218" cy="2.743" rx="16.218" ry="2.743" transform="translate(357.905 278.797)"/><ellipse class="a" cx="36.606" cy="6.187" rx="36.606" ry="6.187" transform="translate(104.338 296.822)"/><path class="o" d="M1017.263,742.564a4.731,4.731,0,0,0,1.549-2.335,2.078,2.078,0,0,0-1.081-2.376c-.992-.379-2.053.306-2.855,1s-1.726,1.484-2.779,1.339a4.222,4.222,0,0,0,1.307-3.957,1.655,1.655,0,0,0-.363-.807c-.552-.589-1.548-.335-2.21.129-2.1,1.476-2.682,4.324-2.694,6.889a12.972,12.972,0,0,1-.036-2.823,2.917,2.917,0,0,0-1.065-2.513,3.257,3.257,0,0,0-1.613-.4,3.374,3.374,0,0,0-2.638.75,2.594,2.594,0,0,0,.1,3.227,10.539,10.539,0,0,0,2.726,2.186,6.045,6.045,0,0,1,1.952,1.859,2.029,2.029,0,0,1,.145.331h5.909a16.433,16.433,0,0,0,3.642-2.5Z" transform="translate(-636.437 -465.509)"/><path class="o" d="M932.1,791.154a4.724,4.724,0,0,0,1.545-2.335,2.086,2.086,0,0,0-1.081-2.375c-.992-.379-2.053.306-2.856,1s-1.726,1.484-2.779,1.339a4.222,4.222,0,0,0,1.307-3.957,1.614,1.614,0,0,0-.363-.807c-.548-.589-1.549-.335-2.206.129-2.1,1.476-2.682,4.323-2.694,6.889a12.724,12.724,0,0,1-.04-2.823,2.917,2.917,0,0,0-1.065-2.513,3.23,3.23,0,0,0-1.613-.383,3.373,3.373,0,0,0-2.638.75,2.594,2.594,0,0,0,.1,3.227,10.5,10.5,0,0,0,2.73,2.186,6.043,6.043,0,0,1,1.948,1.859,2.057,2.057,0,0,1,.146.331h5.909A16.553,16.553,0,0,0,932.1,791.154Z" transform="translate(-585.619 -494.501)"/><path class="p" d="M303.94,621.121s-5.667-19.243,1.065-33.4a30.4,30.4,0,0,0,2.468-19.077,51.035,51.035,0,0,0-2.7-8.95" transform="translate(-218.434 -360.852)"/><path class="o" d="M307.025,530.987c0,2.359-4.271,9.2-4.271,9.2s-4.267-6.837-4.267-9.2a4.271,4.271,0,1,1,8.538,0Z" transform="translate(-216.51 -341.099)"/><path class="o" d="M324.463,560.283c-1.283,1.976-8.583,5.4-8.583,5.4s.133-8.067,1.416-10.039a4.271,4.271,0,0,1,7.167,4.642Z" transform="translate(-226.889 -357.331)"/><path class="o" d="M321.406,613.353c-2.105,1.065-10.136.331-10.136.331s4.183-6.893,6.288-7.953a4.271,4.271,0,0,1,3.848,7.623Z" transform="translate(-224.138 -388.082)"/><path class="o" d="M311.694,655.746c-1.9,1.4-9.934,2.016-9.934,2.016s2.96-7.5,4.84-8.905a4.271,4.271,0,0,1,5.078,6.857Z" transform="translate(-218.464 -413.627)"/><path class="o" d="M291.836,573.672c1.694,1.642,9.571,3.344,9.571,3.344s-1.928-7.828-3.63-9.47a4.271,4.271,0,0,0-5.949,6.127Z" transform="translate(-211.81 -364.864)"/><path class="o" d="M279.093,621.419c2.105,1.061,10.132.327,10.132.327s-4.182-6.893-6.288-7.954a4.271,4.271,0,1,0-3.844,7.627Z" transform="translate(-203.536 -392.86)"/><path class="o" d="M276.031,671.2c1.9,1.4,9.934,2.017,9.934,2.017s-2.96-7.5-4.84-8.9a4.271,4.271,0,0,0-5.078,6.856Z" transform="translate(-202.188 -422.852)"/><path class="q" d="M274,699.045s6.9-1.371,8.744-3.2,10.119-5.021,11.039-2.739,12.422,10.047,4.6,11.418-18.4,1.827-20.7.916S274,699.045,274,699.045Z" transform="translate(-201.9 -439.987)"/><path class="r" d="M298.4,713.532c-7.82,1.371-18.4,1.827-20.7.912-1.754-.694-2.972-4.033-3.452-5.594l-.242.061s1.379,5.481,3.682,6.4,12.882.455,20.7-.916c2.259-.4,2.9-1.323,2.662-2.5C300.866,712.645,300.079,713.238,298.4,713.532Z" transform="translate(-201.9 -449.852)"/><path class="o" d="M934.146,659.91s2.218,2.9-1.02,7.26-5.909,8.067-4.84,10.8c0,0,4.888-8.127,8.873-8.24S938.514,664.786,934.146,659.91Z" transform="translate(-592.152 -420.651)"/><path class="e" d="M934.339,659.91a3.614,3.614,0,0,1,.456.911c3.88,4.558,5.945,8.813,2.214,8.918-3.472.1-7.639,6.312-8.639,7.881a3.717,3.717,0,0,0,.117.359s4.888-8.127,8.873-8.24S938.707,664.786,934.339,659.91Z" transform="translate(-592.346 -420.651)"/><path class="s" d="M952.632,668.093c0,1.02-.117,1.847-.258,1.847s-.254-.807-.254-1.847.141-.541.282-.541S952.632,667.072,952.632,668.093Z" transform="translate(-606.517 -425.139)"/><path class="s" d="M954.306,671.058c-.9.488-1.678.782-1.743.657s.6-.617,1.5-1.105.544-.133.613,0S955.2,670.57,954.306,671.058Z" transform="translate(-606.779 -426.887)"/><path class="o" d="M906.794,659.91s-2.218,2.9,1.02,7.26,5.909,8.067,4.84,10.8c0,0-4.884-8.127-8.873-8.24S902.418,664.786,906.794,659.91Z" transform="translate(-576.501 -420.651)"/><path class="e" d="M906.781,659.91a3.621,3.621,0,0,0-.456.911c-3.88,4.558-5.945,8.813-2.214,8.918,3.473.1,7.639,6.312,8.639,7.881a2.9,2.9,0,0,1-.121.359s-4.884-8.127-8.873-8.24S902.4,664.786,906.781,659.91Z" transform="translate(-576.488 -420.651)"/><path class="s" d="M903.94,668.093c0,1.02.117,1.847.258,1.847s.254-.807.254-1.847-.141-.541-.282-.541S903.94,667.072,903.94,668.093Z" transform="translate(-577.769 -425.139)"/><path class="s" d="M899.633,671.058c.9.488,1.674.782,1.742.657s-.6-.617-1.5-1.105-.544-.133-.613,0S898.737,670.57,899.633,671.058Z" transform="translate(-574.873 -426.887)"/><path class="q" d="M905.69,698.81s6.2-.194,8.067-1.521,9.531-2.916,9.994-.807,9.309,10.6,2.315,10.66-16.25-1.089-18.114-2.222S905.69,698.81,905.69,698.81Z" transform="translate(-578.813 -441.861)"/><path class="r" d="M926.187,711.369c-6.994.056-16.25-1.089-18.114-2.222-1.419-.863-1.988-3.965-2.174-5.4h-.21s.4,5,2.259,6.13,11.119,2.279,18.113,2.222c2.017,0,2.714-.734,2.678-1.795C928.458,710.958,927.687,711.357,926.187,711.369Z" transform="translate(-578.813 -446.809)"/></g></svg>